<svg width="95" height="96" viewBox="0 0 95 96" fill="none" xmlns="http://www.w3.org/2000/svg">
<path fill-rule="evenodd" clip-rule="evenodd" d="M47.5 21.7417C27.5653 21.7417 10.0439 32.0749 0 47.6774C10.0439 63.2799 27.5653 73.6131 47.5 73.6131C67.4348 73.6131 84.9561 63.2799 95.0001 47.6774C84.9561 32.0749 67.4348 21.7417 47.5 21.7417ZM47.5 56.6775C52.4706 56.6775 56.5 52.6481 56.5 47.6775C56.5 42.7069 52.4706 38.6775 47.5 38.6775C42.5295 38.6775 38.5 42.7069 38.5 47.6775C38.5 52.6481 42.5295 56.6775 47.5 56.6775Z" fill="white"/>
<path fill-rule="evenodd" clip-rule="evenodd" d="M47.5001 68.6594C59.0878 68.6594 68.4816 59.2656 68.4816 47.6778C68.4816 36.0901 59.0878 26.6963 47.5001 26.6963C35.9123 26.6963 26.5185 36.0901 26.5185 47.6778C26.5185 59.2656 35.9123 68.6594 47.5001 68.6594ZM47.5001 56.6777C52.4706 56.6777 56.5001 52.6483 56.5001 47.6777C56.5001 42.7072 52.4706 38.6777 47.5001 38.6777C42.5295 38.6777 38.5001 42.7072 38.5001 47.6777C38.5001 52.6483 42.5295 56.6777 47.5001 56.6777Z" fill="#EC4D36"/>
</svg>
